<svg xmlns="http://www.w3.org/2000/svg" xmlns:xlink="http://www.w3.org/1999/xlink" width="100" height="100" viewBox="0 0 100 100">
  <defs>
    <style>
      .cls-1 {
        clip-path: url(#clip-Logo-standalone);
      }

      .cls-2 {
        fill: #fff;
      }
    </style>
    <clipPath id="clip-Logo-standalone">
      <rect width="100" height="100"/>
    </clipPath>
  </defs>
  <g id="Logo-standalone" class="cls-1">
    <path id="Path_2" data-name="Path 2" class="cls-2" d="M14.077,9.294a2.328,2.328,0,0,0-.3.013,2.926,2.926,0,0,0-.66.146,2.124,2.124,0,0,0-1.458,1.631C9.749,22.936,7.928,33.563,6.622,44.054a9.176,9.176,0,0,0,.943,4.6,10.835,10.835,0,0,1,.957,3.423,1.813,1.813,0,0,0,.013.245c-.967,1.26-3.135,2.513-4.872,4.187a2.981,2.981,0,0,0-1.139,2.355A2.9,2.9,0,0,0,3.98,61.4a3.883,3.883,0,0,0,2.481.527,10.221,10.221,0,0,0,1.107-.072l44.961-.1v-.409H52.9v-.405h-.375v-.4H52.9v-.4h-.375v-.406H52.9v-.4h-.375v-.407H52.9v-.4q-22.759.054-45.533.1l-.108.015a7.655,7.655,0,0,1-.837.057,2.286,2.286,0,0,1-.3-.023c1.283-1.144,3.492-2.387,5.018-4.4a3.692,3.692,0,0,0,.623-2.177,12.365,12.365,0,0,0-1.178-4.607,7.566,7.566,0,0,1-.746-3.017c1.238-9.957,2.967-20.163,4.787-31.438h0c2.953,1.952,6.021,6.05,8.895,8.9A11.982,11.982,0,0,0,26.827,24c.966.581,1.672.84,1.914,1.074a2.851,2.851,0,0,1,.742,1.132,4.6,4.6,0,0,1-.042,1.276,10.354,10.354,0,0,1-.62,1.942A6.325,6.325,0,0,0,28.3,32.5a4.3,4.3,0,0,0,1.306,2.577c2.177,2.261,5.543,4.158,7.969,5.782a21.245,21.245,0,0,1,2.046,1.529c-.162.039-.357.085-.347.086-8.387-.6-11.225-1.767-16.472-1.95a5.837,5.837,0,0,0-3.222.857,7.7,7.7,0,0,0-1.792,1.607c-.463.521-.8.963-.8.97a8.52,8.52,0,0,0-.561.819,3.288,3.288,0,0,0-.688,2.039,2.754,2.754,0,0,0,.2,1.087A2.355,2.355,0,0,0,17.285,49.2a26.907,26.907,0,0,0,6.506.981c.023,0,.061.008.079.01.087.008.161.012.256.016.189.008.442.017.769.024.654.016,1.59.033,2.75.048,2.32.032,5.533.062,9.108.081,7.15.039,15.743.038,21.54-.068a5.037,5.037,0,0,0,3.606-.867,5.4,5.4,0,0,0,1.767-3.642,8.149,8.149,0,0,0-.338-4.477,13.583,13.583,0,0,0-4.785-5.775c-2.883-2.082-6.181-2.2-8.31-3.317a9.805,9.805,0,0,1-2.911-1.866,3.344,3.344,0,0,1-.507-1.58,3.509,3.509,0,0,1,.209-1.459,72.072,72.072,0,0,1,4.566-10.127,2.964,2.964,0,0,1,.873-.406c.032,0,.284.109.249.072a28.6,28.6,0,0,1,4.308,5.217c5.647,10.7,11.142,22.72,17.21,33.432.018.032.028.207.042.162a4.989,4.989,0,0,1-1.824,2.222,9.542,9.542,0,0,1-.919.4c-.322.113-.477.153-.588.185L55.759,58.5v.41h-.395v.407h.395v.4h-.4v.405h.4v.4h-.4v.405h.4v.4h-.392v.406q8.007-.022,16.037-.037l.205-.055s.453-.123,1-.312a5.984,5.984,0,0,0,1.805-.882,7.542,7.542,0,0,0,3-3.973,3.367,3.367,0,0,0-.353-2.592C71.085,43.363,65.6,31.366,59.889,20.55a28.613,28.613,0,0,0-4.789-5.9,3.417,3.417,0,0,0-2.9-1.108,4.1,4.1,0,0,0-3.454,2.077,74.884,74.884,0,0,0-4.777,10.6,6.6,6.6,0,0,0-.382,2.869,6.163,6.163,0,0,0,1.166,3.239,10.441,10.441,0,0,0,3.972,2.757c3.019,1.585,6.088,1.754,7.919,3.075a10.648,10.648,0,0,1,3.673,4.356,5.221,5.221,0,0,1,.153,2.7,3.852,3.852,0,0,1-.594,1.67,11.645,11.645,0,0,1-1.642.162c-5.739.1-14.328.106-21.464.067-3.567-.02-6.774-.05-9.082-.081-1.083-.015-1.922-.03-2.548-.045l-1.126-.047a40.756,40.756,0,0,1-4.75-.58c.135-.207.281-.412.281-.412l.008-.011.008-.012s.272-.358.65-.783a7.835,7.835,0,0,1,1.042-.983,2.808,2.808,0,0,1,1.437-.394c4.787.167,7.725,1.331,16.354,1.944a4.643,4.643,0,0,0,3.115-.83,2.753,2.753,0,0,0,1.225-2.136,3,3,0,0,0-.8-1.973,14.315,14.315,0,0,0-3.2-2.606c-2.571-1.721-5.84-3.679-7.435-5.337a4.3,4.3,0,0,1-.424-.72,3.681,3.681,0,0,1,.337-1.555,10.754,10.754,0,0,0,.8-2.7,5.847,5.847,0,0,0-.067-2.571,5.855,5.855,0,0,0-1.6-2.549,9.091,9.091,0,0,0-2.5-1.521,13.577,13.577,0,0,1-2.69-1.6c-2.832-2.812-6.247-7.986-10.889-10.163l-.256-.12-.282-.027q-.152-.015-.3-.017ZM55.363,60.941h-.41v.405h.41Zm-.41.405h-.408v.406h.408Zm-.408,0v-.405h-.412v.405Zm-.412,0h-.41v.406h.41Zm-.41,0v-.405h-.411v.405Zm-.411,0H52.9v.406h.41Zm0-.405v-.4H52.9v.4Zm0-.4h.411v-.405h-.411Zm0-.405v-.4H52.9v.4Zm0-.4h.411v-.4h-.411Zm0-.4v-.407H52.9v.407Zm0-.407h.411v-.4h-.411Zm.411,0v.407h.41v-.407Zm.41,0h.411v-.4h-.411Zm.411,0v.407h.409v-.407Zm.409,0h.41v-.4h-.41Zm0,.407v.4h.41v-.4Zm0,.4h-.408v.4h.408Zm0,.4v.405h.41v-.405Zm0,.405h-.408v.4h.408Zm-.408,0v-.405h-.412v.405Zm-.412,0h-.41v.4h.41Zm0-.405v-.4h-.41v.4Zm0-.4h.411v-.4h-.411ZM13.832,9.912l.043.338-.114.014-.114.022-.112.028-.117.036L13.3,10.4l-.133.067L13.1,10.5l-.064.042-.03.023-.2-.273.033-.025.072-.048.073-.043H13l.143-.072h.017l.135-.053h.017l.127-.039h.017l.125-.031h.017l.121-.022h.017Zm.759.057.077.036h0l.2.1.2.1.4.216.034.02-.173.294-.028-.017-.392-.213-.193-.1-.2-.1-.074-.035ZM16.393,11l.259.177.377.274.193.148-.208.271-.189-.146-.373-.271-.255-.175Zm-4.158.267.337.054-.163,1.011-.337-.054Zm1.9.386.331.173.33.192.228.142-.182.29-.222-.14-.329-.19-.115-.061-.142.875-.337-.054.164-1.012.136.022Zm3.9.6.114.1.358.317.292.267-.231.252-.288-.265-.353-.312-.113-.1Zm-2.149.5.244.187.325.261.23.193-.22.261-.226-.19-.319-.256-.242-.183Zm-3.975.529.337.054-.163,1.011-.338-.054Zm7.635.366.02.019.342.345.337.35.018.021-.248.233L20,14.6l-.335-.346-.339-.342-.018-.017Zm-6,.242.337.054-.163,1.012-.337-.055Zm3.923.194.3.279.32.311.122.121-.241.242-.119-.118-.317-.307-.3-.277Zm35.117.051H52.6l.156.008h.017l.154.017h.017l.153.025h.017l.152.033h.017l.05.013-.09.329-.044-.013-.145-.031L52.9,14.5l-.145-.015-.144-.008h-.147l-.15.008h-.033l-.035-.339H52.3l.157-.008h.017Zm-1.408.236.119.32-.183.069-.187.082-.183.093-.174.1-.145.1-.192-.282.15-.1h.017l.183-.108h.017l.19-.1H50.8l.2-.085h.017Zm3.092.331.014.011.125.1.12.109.115.117.354.38-.249.233-.352-.377-.109-.112-.113-.1-.117-.094-.011-.008Zm-33.3.433.268.295.417.467-.255.227-.415-.465-.267-.294Zm-9.383.168.337.054-.043.271-.121.741-.337-.055.12-.74Zm7.34.227.115.119h0l.315.334h0l.272.293-.251.232-.27-.292-.312-.333-.114-.118Zm30.537.088.282.192-.057.085-.056.089-.052.09-.32.591-.008.012-.3-.16.008-.012.324-.6.057-.1.06-.1Zm2.935.227h.142l.122.016h.017l.065.015-.077.333L52.6,16.2l-.1-.013h-.09l-.092.011-.1.019-.1.027-.1.033-.106.038-.107.045-.019.009-.146-.308.023-.011L51.773,16l.113-.042L52,15.923h.017l.113-.029h.017l.11-.022h.017l.107-.014Zm-39.182.067.337.054-.033.2-.131.808-.337-.054.131-.808Zm42.508.272.166.175.537.571-.249.233-.536-.57-.165-.173Zm-2.062.3.362.39.336.356-.248.234-.336-.357-.364-.39Zm-31.327.179.166.189.508.582-.258.225-.507-.583-.165-.188Zm28.432.083.3.163-.307.566-.177.333-.3-.161.178-.333v0Zm-30.443.288.285.317.4.446-.255.228-.4-.446h0l-.286-.315Zm-9.066.287.337.055-.165,1.011-.337-.055Zm37.213.108.3.156-.159.308-.305.6-.3-.154.3-.6Zm8.647.258.028.03.307.355.3.362.027.034-.267.212-.025-.031-.3-.36-.3-.35-.026-.029Zm-44.231.242.338.055L13.055,19l-.337-.055Zm42.175.048.2.21h0l.3.33h0l.194.217-.255.227-.192-.217-.3-.326-.194-.208Zm-31.377.227.017.019.577.646.085.092-.252.232-.086-.094h0l-.58-.648h0l-.017-.02Zm26.122.356.305.153-.288.571h0l-.169.342-.306-.151.169-.344Zm-28.119,0,.143.16.54.6-.254.228-.54-.6-.143-.16Zm25.865.7.308.148-.192.4-.248.526-.308-.145.248-.528h0Zm10.859.034.2.288.261.4.1.167-.29.18-.1-.163-.257-.389-.2-.283Zm-47.482.043.338.055-.083.514-.081.5-.337-.054.08-.5Zm45.495.18.268.337.257.34.1.136-.278.2-.1-.136-.251-.333-.263-.33.112-.089Zm-31.362.186.058.06.272.275.153.145.153.132.088.068-.21.269-.092-.071-.16-.138-.16-.151-.275-.279-.06-.063Zm-12.5.243.338.055-.065.4-.1.609-.338-.054.1-.609Zm10.5.127.553.588.147.152-.245.237-.149-.153-.555-.59Zm25.841.325.308.145-.3.636h0l-.133.289-.31-.142.133-.292Zm-22.267.514.03.017.349.175.368.182h0l.158.083-.157.3-.156-.081-.367-.181-.353-.177-.034-.018Zm32.857.147.475.908-.3.158-.475-.908Zm-12.807.061.312.14-.237.528-.178.405-.312-.137.177-.406Zm10.938.085.031.051.1.178.1.179.258.493-.3.158-.257-.491-.094-.173-.1-.17-.028-.047ZM10.6,21.368l.337.054-.164,1.011-.337-.054Zm13.88.161.126.109.21.167.2.149.2.138.052.033-.18.289-.052-.033-.21-.142-.212-.154-.213-.169-.132-.114Zm3.958.342.254.125.287.136.3.149.072.037-.158.3-.067-.036-.3-.147-.287-.136-.256-.125Zm-16.208.106.337.054L12.4,23.042l-.337-.054Zm35.812.293.312.139-.033.077-.286.656-.085.2-.315-.133.086-.2.288-.658Zm-21.88.342.058.03.377.183.362.18.114.061-.161.3-.11-.058-.355-.177-.378-.183L26,22.917Zm34.277.273.469.91-.3.157-.469-.911Zm-30.188,0,.011.008.156.129.152.141.225.228.108.119.077.091-.258.222-.075-.087-.1-.114-.218-.222-.148-.136-.15-.125-.008-.008Zm15.614.125.314.133-.279.676-.1.264-.317-.127.106-.266.28-.679Zm12.725.021.327.625.146.283-.3.157-.146-.283-.327-.624Zm-48.317.358.337.054-.108.667-.054.344-.337-.053.055-.344Zm17.7.172.52.263.255.133.133.077-.171.3-.132-.076-.249-.131-.517-.262ZM11.9,24l.337.054-.083.51-.078.5-.337-.052.08-.5Zm35.335.161.315.13-.073.177-.265.662-.041.1-.318-.123L46.9,25v0l.267-.664h0Zm-15.626.33V24.5l.079.147.074.15.069.154.063.158.057.16.052.163-.21.056-.118.037-.051-.161-.056-.154-.06-.148-.067-.147-.07-.144h0l-.076-.14Zm29.766.217.117.228.348.683-.3.156-.347-.683h0l-.117-.227Zm-31.67.031.012.013.141.179.128.185v.017l.115.189v.017l.1.192v.017l.046.106-.313.136-.044-.1L29.8,25.5l-.11-.179-.122-.176-.135-.173-.008-.008Zm29.824.115.442.858h0l.027.052-.3.155-.027-.052-.442-.858ZM45.1,24.914l.318.124-.056.143-.255.678-.048.13-.321-.117.048-.132h0l.256-.682Zm-35.152.5.337.053-.161,1.012-.337-.053Zm1.632.608.337.054-.161,1.011-.337-.053Zm34.907.049.319.12-.1.262-.237.656-.01.03-.324-.107L46.144,27l.24-.662Zm-14.311.452v.206l-.016.28-.025.269-.033.266-.339-.042.032-.261.025-.266.017-.275v-.192ZM62.3,26.53l.247.485.217.429-.306.153-.216-.428L62,26.684Zm-1.842.145.464.913-.3.155-.464-.912ZM30.112,26.7l.342.017-.01.178-.017.218-.052.468-.017.117-.008.038-.336-.058.008-.035.015-.108.05-.463.017-.213Zm14.287.154.329.092-.05.181-.068.3-.028.15-.025.155-.019.154v.025l-.34-.033v-.03l.021-.161.025-.158.029-.158.07-.312v-.008Zm-34.775.576.337.053-.118.74L9.8,28.5l-.338-.053.042-.272Zm1.632.608.337.054-.085.539h0l-.073.472-.337-.052.073-.473Zm34.638.025.339.039-.011.093-.013.215v.214l.013.2.032.256-.338.042-.032-.258v-.017l-.014-.217v-.256l.013-.225v-.017Zm17.333.292.381.754.08.16-.305.152-.08-.159-.38-.755Zm-1.839.143.461.914-.3.154-.461-.915Zm-29.8.008.329.089-.067.25-.1.317-.108.308-.038.1-.319-.121.036-.1.106-.3.1-.311Zm-1.842.15.322.114-.043.124-.1.277h0l-.211.558-.319-.12.21-.558.1-.273Zm14.773.257.008.087.042.35.028.175.031.173.036.174.008.02-.332.079-.008-.02-.038-.183-.033-.182-.028-.182-.042-.357-.008-.089Zm-35.212.542.337.052-.117.751-.04.261-.337-.052.04-.261Zm37.183.582.029.077.047.112.052.11.052.1.057.1.06.093.063.086.125.152-.262.217-.13-.156v-.017l-.068-.093-.064-.1-.061-.1-.058-.109-.052-.114-.05-.118-.032-.083Zm-35.552.027.338.053-.083.527-.074.484-.337-.052.075-.484Zm53.208.122.458.917-.305.152-.458-.916Zm-1.838.144.458.916-.3.153L62,30.488Zm-31.4.092.322.117-.027.076h0l-.085.255-.073.247-.058.234-.026.144-.336-.062.028-.15v-.017l.06-.242.075-.252.086-.261h0Zm-1.852.178.33.087-.039.15-.038.163-.033.163-.028.167-.021.164-.014.162-.34-.029.014-.162.023-.177.028-.174.034-.171.039-.169Zm15.911.245.042.095.079.166.088.165.1.167.105.158.073.1-.275.2-.075-.1L45,31.633l-.1-.171-.092-.174-.085-.176-.042-.1Zm-35.977.635.337.052-.114.745h0l-.04.267L8.839,32.5l.04-.267Zm38.727.022.045.032.193.128.195.12.206.12.21.117-.008.01-.155.292v0L48.19,32.2l-.209-.122-.2-.124-.194-.127-.05-.035Zm17.342.517.458.917-.306.153-.457-.917ZM10.627,32.1l.338.052-.077.5-.077.513-.338-.05.077-.513Zm52.6.073.457.917-.306.152-.457-.917ZM31,32.414l.069.153.084.162.091.152.1.146.094.128.071.082-.258.223-.075-.087-.008-.008v-.008l-.1-.136-.1-.153-.1-.164-.087-.165v-.017l-.072-.16v-.025l.213-.075Zm15.123.018.2.177.228.18.23.167.128.085-.189.283-.133-.089-.238-.172-.232-.183-.207-.18Zm3.361.071.475.247.217.109.216.1-.145.31-.217-.1-.222-.112-.477-.247Zm-20.2.138.017.08.039.147.047.15.054.146.061.142.062.128.06.112-.3.162-.061-.112-.068-.142-.063-.147-.057-.152L29.018,33v-.008l-.042-.162v-.017l-.018-.083Zm22.05.69h.011l.492.163v0l.461.142-.1.327-.464-.143-.5-.167-.012-.008Zm-42.641.18.337.051-.108.727-.042.285-.338-.049.042-.285Zm39.092.045.451.234.458.229-.152.306-.458-.229h0l-.454-.236Zm18.2.3.457.917-.306.152-.457-.917Zm-33.751.067.4.343.382.306-.213.267-.386-.309-.4-.343Zm21.05,0,.65.188.332.1-.1.327-.33-.1-.647-.187ZM64.138,34l.053.107.4.809-.306.152-.4-.809-.053-.107Zm-53.817.119.337.051-.068.457-.082.555-.338-.049.082-.556Zm19.876.219.093.1.188.192.2.192.2.191.028.027-.228.253-.031-.028-.208-.2-.2-.2-.2-.2-.092-.1Zm19.4.14.09.042.26.117.262.112.267.108.044.017-.122.318-.047-.018-.269-.108-.268-.115-.267-.121-.089-.042Zm5.639.056.042.014.269.1.268.1.267.11.107.047-.136.313-.1-.045-.267-.109-.262-.1-.264-.1-.042-.015Zm-21.417.651.156.114.487.344.186.128-.193.281-.187-.129-.492-.347v0l-.157-.115Zm17.662.031.335.11.535.165.1.03-.1.327-.1-.03-.537-.166-.337-.111Zm5.654.146.023.012.258.145.255.154.252.164.085.058-.195.281-.084-.059h0l-.243-.158-.246-.147-.253-.143-.019-.01Zm-48.752.175.338.05-.1.695-.045.317L8.24,36.55l.045-.317Zm58.5.153.457.917-.306.152-.457-.917Zm-35.2.017.322.262.479.369-.208.27-.479-.368-.326-.263Zm21.755.106.492.147.487.153-.1.326-.486-.152-.488-.147Zm11.612.021.457.917L65.2,36.9l-.457-.917Zm-55.029.313.338.05-.058.4-.088.612-.337-.048.087-.612Zm25.477.2.5.331.353.231-.186.286-.355-.232-.5-.332Zm19.9.112.028.011.233.1.229.1.225.106.217.108-.153.306-.213-.108-.225-.1-.222-.1-.227-.093h0l-.025-.009Zm3.462.067.04.032.342.282.333.292.064.058-.233.25-.058-.054-.327-.287-.333-.276-.037-.028Zm-25.547.411.192.136.518.356.125.084-.19.283-.128-.085v0l-.521-.358h0l-.194-.137Zm23.931.5.272.2.309.243.225.187-.218.262-.221-.183h0l-.3-.237-.269-.2Zm-20.031.03.856.555-.188.285-.854-.554Zm30.592.055.038.077.419.838-.305.153-.419-.838-.038-.077ZM8.1,37.564l.338.048-.093.653-.049.36-.338-.047L8,38.218Zm57.87.1.347.695.11.221-.305.153-.111-.221-.347-.7Zm-5.578.257.161.169.3.336.217.262-.263.218-.214-.258-.3-.333-.158-.166ZM35,38.078l.072.048.784.507-.185.287-.786-.508-.074-.048Zm-25.27.1.337.048-.047.333-.093.68-.338-.047.094-.68h0Zm29.194.414.123.081h0l.467.316.258.179-.194.281-.258-.178-.462-.313h0v0l-.122-.08Zm19.9.185.187.186.272.285.244.275-.256.226-.243-.273-.264-.278-.187-.185Zm-22.1.417.418.268.442.287-.187.286-.44-.287-.418-.268Zm32,.163.186.371.274.543-.305.154-.274-.544-.186-.371Zm-1.838.144.458.916-.305.153-.458-.916Zm-5.184.033.118.176.122.19.117.192.114.195.067.119-.3.167-.065-.117-.11-.188-.114-.186-.118-.184-.115-.173Zm-53.884.063.338.047-.083.6-.054.413-.338-.045L7.73,40.2Zm32.8.175.183.138.189.151.182.152.175.151.063.058-.23.252-.06-.055-.172-.149-.177-.147-.186-.148-.178-.135ZM9.451,40.2l.338.047-.035.256-.1.758-.339-.045.1-.758v0Zm28.985.113.117.079.425.3.293.215-.2.275-.291-.212-.42-.3-.117-.079Zm21.742.029.1.135.211.32.2.325.045.083-.3.163-.042-.077-.2-.325-.2-.308h0l-.1-.135Zm-37.022.8.108.008.462.025.452.031-.023.34-.45-.03-.458-.025-.1-.008Zm-1.046.012.033.339-.083.008-.173.025-.172.03-.177.038-.171.043-.167.05-.015.008-.108-.325.017-.008.177-.052v0l.178-.045h0l.18-.039.181-.033h0l.183-.026Zm47.532.025.333.66.128.252-.3.155L69.669,42l-.333-.661Zm-27.5.008.107.135.117.165v.017l.107.173.048.088.045.092.042.092.036.1v.008l.012.039-.324.106-.011-.034-.033-.088-.038-.086-.042-.086-.042-.077-.1-.163-.113-.158-.1-.132Zm-16.937.11.292.03.425.048.3.037-.042.339-.3-.037-.423-.048-.289-.03Zm42.592.03.462.914-.305.154-.462-.914Zm-5.1.025.076.182.093.25.081.251.069.254.008.033-.333.076-.008-.031-.067-.243-.078-.246-.092-.244h0l-.073-.176Zm-35.452.2.792.118.221.036-.054.337-.221-.036-.79-.118Zm12.845,0,.267.233.125.117.112.111.1.107.086.1.038.048-.27.208-.035-.044-.079-.092-.094-.1-.112-.111-.117-.108-.267-.233Zm-32.554.072.338.045-.072.54-.06.473-.338-.043.061-.475Zm12.564.157.162.3-.045.024-.147.086-.11.069-.107.073-.214.16-.179.148-.218-.262.181-.15.223-.167.115-.077.117-.073.157-.092Zm9.171.084.515.083.5.078-.054.338-.5-.079-.515-.083Zm31.914.3v.008l.064.172.057.178.05.183.042.186.034.191.011.075-.338.048-.01-.071-.033-.183-.038-.178L60.98,42.6l-.054-.17-.061-.163.017-.008ZM31.3,42.189l.393.061.617.09-.05.337-.617-.09-.4-.061ZM9.18,42.238l.338.045-.023.168-.108.846-.338-.043.108-.847Zm24.14.244.516.069.5.06-.041.338-.5-.061-.517-.07Zm2.03.249.314.035.658.068.043.008-.033.34h-.043l-.66-.068-.315-.035Zm-12.75.107h.117l.175.008-.015.342-.169-.008h-.222l-.115.008-.111.011-.112.017-.11.02-.124.029-.078-.332.128-.031h.017l.121-.022h0l.12-.018.12-.013.118-.008Zm17.752,0,.1.325-.194.062-.239.064-.236.053-.213.041h-.017l-.112.016-.044-.338.107-.014.207-.038.226-.052.235-.063ZM23.93,42.9l.133.009.427.035.421.039h.038l-.036.339h-.037l-.417-.039-.423-.033-.132-.01Zm13.453.031.337.03.683.056-.028.34-.684-.056-.337-.03Zm33.184.077.465.912-.3.155-.465-.912Zm-44.592.1.186.022.822.114h.008l-.051.338h-.008l-.817-.113-.185-.023Zm-7.487.012.25.232-.075.082-.168.187-.3.348-.119.143-.263-.217.118-.144.306-.353.172-.192Zm23.9.017.329.089v.032l-.037.106v.017l-.044.1V43.5l-.05.1v.017l-.057.1v.008l-.062.1-.067.092L42.331,44l-.077.083-.073.072-.238-.245.069-.067.071-.078.067-.08.063-.084.058-.088.051-.088.046-.092.04-.095.033-.094Zm26.332.019.465.913-.3.154-.465-.912Zm-47.88.172.171.295-.063.037-.107.073-.128.1-.147.125-.154.14-.154.147-.236-.247.154-.147.161-.147.151-.128.138-.107h.017l.118-.08h.017Zm42.36.06.017.242.008.257v.257l-.008.256v.01l-.34-.02v-.008l.008-.25v-.252l-.009-.256-.017-.237ZM28.01,43.4l1.012.162-.054.337-1.012-.162Zm-20.733.258.339.042-.06.469-.026.276-.009.258-.342-.013.01-.264v-.017l.027-.28Zm22.757.065.455.073.555.086-.052.337-.556-.085-.456-.073Zm2.022.308.459.067.552.074-.045.338-.553-.075-.461-.067Zm29.118.2.342.008v.1l-.012.2-.017.2-.023.2-.028.2-.017.1-.337-.055.016-.1.027-.194.022-.2.017-.2.011-.194Zm-52.252.032.339.043-.009.072-.014.164v.168l.008.176.017.187.024.182v.017l-.337.06v-.02l-.027-.2-.017-.192V44.91L8.9,44.726v-.213l.015-.173Zm25.16.033.765.092.248.028-.037.339-.25-.028-.767-.092Zm7,.122.143.309-.06.028L41,44.827l-.167.061-.168.053-.169.046h0l-.169.039-.073.013-.063-.335.068-.013.163-.037.162-.045.163-.052L40.9,44.5h0l.158-.065Zm-4.963.106.042.008.694.067.279.025-.03.34-.281-.025-.7-.067-.043-.008Zm2.036.182.178.014.787.058h.05l-.017.342h-.054l-.787-.058-.18-.015Zm-20.97.013.281.194-.044.063-.185.29-.2.33-.094.174-.3-.163.1-.176.2-.333.189-.3Zm2.134.038.258.223-.075.088-.216.261-.19.242-.123.167-.01.013-.281-.193.013-.019.125-.169.194-.247.218-.264Zm52.187.07.469.911-.3.156-.469-.91Zm-1.847.147.47.91-.3.157-.47-.91Zm-6.877.433.337.056-.036.217-.07.385-.04.2-.044.2-.333-.072.043-.2.039-.2.069-.379Zm-55.17.278.012.075.054.262.062.254.071.257.035.114-.327.1-.037-.119-.072-.262-.064-.265h0l-.055-.267h0l-.013-.082Zm53.252.522.328.092-.025.09-.049.15-.053.144-.056.138-.058.131-.062.122-.065.113v.017l-.033.05-.285-.188.03-.046.059-.1.059-.117.054-.119.053-.13.049-.137.048-.146Zm-51.342.044.012.042.148.45.167.462-.11.04-.209.08-.171-.471-.15-.454L9.2,46.361Zm8.633.247.317.128v.008l-.052.137.052.016h0l.2.053.239.057-.078.333-.243-.058-.2-.054-.2-.058-.1-.029-.018-.106-.008-.041v-.134l.031-.038.008-.022.067-.178Zm54.292.146.475.908-.3.158-.475-.907Zm-56.1.012.34.027v.134l.008.167.008.085.012.094.017.092.022.1.03.1.038.106.017.038-.31.142L16.5,47.7v-.017l-.042-.117v-.017l-.033-.113v-.017l-.025-.108V47.3l-.017-.1v-.008l-.012-.1-.008-.094-.008-.173v-.158Zm54.252.138.017.033.458.872-.3.158-.458-.873h0l-.017-.033Zm-50.69.3.109.019.473.074.42.058-.048.338-.42-.058-.479-.075-.113-.02Zm42.392.254.315.129-.032.08v.008l-.1.208V47.8l-.111.2v.017l-.125.2v.017l-.14.192-.2-.158-.072-.053.133-.183.118-.188.107-.195.095-.2Zm-40.376.02.8.078.218.017-.028.341-.221-.018-.8-.077Zm37.827.165.011.063.057.271-.132.022-.139.019-.295.031-.312.021-.137.008-.014-.342.137-.008.3-.02.292-.03.127-.017Zm-35.792,0h.038l.978.041-.014.341-.981-.042h-.042Zm2.04.067.24.008.782.012-.008.342-.782-.013-.242-.008Zm-17.821.008.073.2.194.5.1.256-.318.123-.1-.256-.195-.5-.075-.2Zm19.867.025,1.025.012V48l-1.025-.013Zm29.694.017.008.342-1.024.017-.008-.342Zm-27.646.008,1.024.011v.342l-1.025-.011Zm2.047.02,1.025.008v.342l-1.025-.008Zm23.551,0v.342l-1.024.01V47.7Zm-21.5.012,1.023.008v.342l-1.023-.008Zm19.454.008v.342H53.47l-.855.008v-.342l.854-.008h.17Zm-17.407.008h1.023v.341H36.232Zm15.358.008v.342l-.783.008h-.24v-.342h.239Zm-13.31,0,1.024.008v.342l-1.025-.008Zm2.048.008h1.025v.342H40.328Zm9.217,0v.342H48.52v-.342Zm-7.168.008H43.4l0,.342H42.376Zm5.12,0v.342H46.473V47.74Zm-3.072,0h1.023v.342H44.423Zm-34.208.421.012.027h0l.2.51.153.422-.321.117-.153-.422-.195-.506-.01-.027Zm7.223.092.07.033.07.025.223.072.233.068.237.064.094.023-.083.331-.1-.024-.243-.067-.237-.069-.231-.074L17.4,48.6h-.017l-.078-.035h-.017l-.009-.008.158-.3Zm55.958.2.366.69.114.213-.3.161-.116-.213-.367-.69Zm-1.853.153.161.306.318.6-.3.16-.318-.6-.161-.307Zm-52.175.147.167.033.513.087.323.048-.05.337L20,49.213l-.517-.088-.171-.033Zm41.732.093.183.288-.077.048-.1.06L61,49.3l-.106.05-.107.046-.107.042h-.017l-.215.07h-.017l-.117.03-.084-.33.11-.028.206-.068.1-.037.1-.045.093-.045.1-.053.1-.057Zm-39.72.207.152.017.452.047.408.037-.03.34-.411-.037-.454-.046-.154-.018Zm2.03.17.206.012.23.01h.017l.091.012.217.013.258.008-.012.342-.262-.008-.224-.014h-.017l-.089-.011-.225-.008-.208-.013Zm2.041.081.647.013.375.008-.008.342-.376-.008-.648-.014Zm2.046.035h.162l.862.011-.008.342-.862-.012h-.162Zm31.739.016.011.342H58.232l-.008-.342h1.014Zm-29.691.008h.011l1.012.011v.342l-1.012-.011h-.012Zm27.646.008.008.342-1.024.017-.008-.342Zm-25.6.014h.146l.878.008v.342l-.878-.008h-.146Zm23.551.014v.342l-1.024.01v-.342Zm-21.5,0h1.023v.342h-.508l-.516-.008Zm2.047.014,1.025.008v.342l-1.025-.008Zm17.408,0v.342l-1.025.008v-.342Zm-15.36.008,1.024.008v.342l-1.025-.008Zm13.31.008v.342H50.025v-.342h1.023Zm-11.262,0h1.025v.342H39.786Zm9.216,0v.342H47.977v-.342H49Zm-7.167,0h1.022v.342H41.832Zm5.12,0v.342H45.93v-.342Zm-3.072,0h1.025v.342H43.882ZM8.9,49.52l.088.248.079.237.073.234.067.232.008.023-.329.088-.008-.02-.065-.225-.071-.228-.078-.233-.087-.245Zm1.987.583.053.2.063.278.054.282.037.238-.337.052-.036-.232-.053-.275-.062-.27-.053-.2Zm63.473.145.488.9-.3.163-.488-.9Zm-1.857.152.3.565.183.335-.3.163-.183-.336-.3-.567ZM9.429,51.534l.011.088.017.213v.017l.008.209v.153l.008.112v.2l-.01.057V52.6l-.008.017-.01.025-.278-.112-.038-.008V52.5l.008-.027v-.131l-.008-.117v-.154l-.008-.2-.015-.2L9.1,51.583Zm65.913.512.076.138h0l.42.756-.3.166-.421-.757-.077-.14Zm-64.514.123h.342v.048l-.008.178V52.4l-.017.2v.017l-.012.108-.018.112-.025.116-.03.118v.017l-.037.12v.025l-.273-.1L10.7,53.12l.033-.108.03-.112.022-.108.017-.1.013-.1.015-.192.008-.172Zm62.652.032.442.807h0l.05.089-.3.166-.05-.09-.443-.808ZM8.514,53.243l.241.242-.2.2-.285.263L8,54.178l-.224-.257.27-.234h0l.279-.258Zm67.825.591.2.35.061.113.056.116.05.118.046.12.033.1-.325.106-.033-.1-.042-.112-.049-.112-.05-.1-.058-.108-.2-.347Zm-66.15.1.263.217-.073.088-.148.171-.153.167-.156.165-.159.161-.236-.248.156-.157.15-.158.148-.162.145-.167Zm64.282.056.014.025.487.867-.3.167-.487-.865-.015-.027Zm-67.489.575.21.269L6.983,55l-.6.462-.208-.271.6-.462Zm1.781.792.22.261-.25.212-.35.282v0l-.195.152L7.978,56l.192-.15.344-.277Zm-3.4.463.214.266-.3.239-.327.274-.152.133-.225-.257.154-.136.333-.279Zm71.214.013.341.027v.053l-.018.132v.017l-.025.132v.017l-.031.132-.042.146-.046.143-.05.142-.048.122-.318-.125.046-.117.047-.13.044-.138.04-.142.03-.125L76.566,56l.016-.124Zm-1.75.06.325.1-.023.079v.017l-.068.178v.017l-.082.177v.017l-.094.177-.105.175-.083.125-.283-.19.08-.121.1-.169.09-.168.077-.168.064-.168ZM7.16,56.623l.207.272-.038.028-.667.506-.107.083-.21-.269.108-.085.67-.508ZM3.813,57.2l.248.235-.033.035-.075.087-.068.086-.07.1-.067.1-.061.1-.054.108-.048.114-.023.068-.323-.111.025-.073v-.017l.053-.126V57.89l.06-.119v-.017l.065-.112v-.008l.07-.106.073-.1.076-.095.077-.089Zm69.939.324.243.239-.092.094-.164.157-.17.153-.173.15-.161.131-.217-.265.158-.128.17-.146.163-.147.16-.153Zm2.11.124.286.187-.089.137-.17.233-.178.225-.187.215-.258-.223.185-.214.173-.217.163-.226ZM5.546,57.9l.223.258v0l-.262.242-.077.082-.068.083-.06.083-.05.078-.071.123-.019.037-.3-.157.021-.039.075-.131.055-.084.067-.092v-.008l.075-.092v-.008l.008-.008.086-.09h.008l.267-.246Zm66.611.772.136.313-.094.041-.174.068h0l-.171.063-.271.092-.214.068h0l-.04.012-.1-.327.036-.01.207-.065.263-.089.162-.06.165-.065Zm-1.912.391V59.4H69.22V59.06Zm-2.048.008v.342H67.172v-.342Zm-2.048.008v.342H65.123v-.342Zm-2.048.008v.342H63.075v-.342Zm-2.047.008v.342H61.027v-.342ZM60,59.1v.342H58.978V59.1Zm-2.048.008v.342H56.931V59.11Zm-6.145.013v.342H50.786v-.342Zm-2.048.008v.342H48.739v-.342Zm-2.047.008v.342H46.689V59.14Zm-2.048.008v.342H44.643v-.342Zm-2.048.008V59.5H42.593v-.342Zm-2.048.008v.342H40.546v-.342Zm-2.048.008v.342H38.5v-.342Zm-2.048.008v.342H36.448v-.342Zm-2.047.008v.342H34.4V59.19Zm39.112,0,.227.255-.075.067-.208.177-.211.169-.209.162-.095.067-.2-.278.092-.064.2-.158.2-.165.206-.173Zm-41.161,0v.342H32.352V59.19Zm-2.048.008v.342H30.305V59.2Zm-2.048.008v.342H28.256v-.342Zm-2.048.008v.342H26.208v-.342Zm-2.048.008v.342H24.16v-.342Zm-21.689,0,.018.1.032.126.04.125.048.124.055.115.063.112.07.108.041.056-.275.2-.044-.059v-.017L3.465,60.1v-.017L3.4,59.956v-.017l-.06-.127V59.8l-.052-.132v-.017l-.043-.137v-.017l-.035-.14v-.017l-.017-.1Zm19.642,0v.342H22.111v-.342Zm-2.048.008v.342H20.063v-.342Zm-2.048.008v.342H18.014V59.24Zm-2.048.008v.342H15.966v-.342Zm-2.048.008V59.6H13.918v-.342Zm-2.048.008v.342H11.87v-.342Zm-2.048.008v.342H9.822v-.342ZM8.8,59.282v.342H7.773v-.342Zm-3.04.018.129.019.181.02.183.013h.362l.128-.008.016.342-.132.008-.187.008H6.23l-.194-.015-.187-.021-.13-.019Zm67.13,1.017.125.317-.2.08v0l-.4.143-.363.123v0l-.088-.282-.014-.043.358-.121L72.7,60.4Zm-68.314.417.033.02.122.062.124.054.125.046.125.038.125.032.123.025.128.02-.053.337L5.3,61.346l-.133-.027-.133-.033H5.023l-.133-.042H4.873L4.739,61.2H4.723l-.133-.058H4.573l-.133-.067H4.423l-.037-.023Zm66.418.121V61.2H69.968v-.342Zm-2.048.008V61.2H67.92v-.342ZM66.9,60.87v.342H65.871V60.87Zm-2.048.008v.342H63.823v-.342Zm-2.048.008v.342H61.775v-.342ZM60.75,60.9v.342H59.727V60.9ZM58.7,60.9v.342H57.679V60.9Zm-8.193.017v.342H49.485V60.92Zm-2.048.008v.342H47.438v-.342Zm-2.048.008v.342H45.389v-.342Zm-2.047.008v.342H43.34v-.342Zm-2.048.008V61.3H41.292v-.342Zm-2.048.008V61.3H39.244v-.342Zm-2.048.008v.342H37.2V60.97Zm-2.048.008v.342H35.148v-.342Zm-2.048.008v.342H33.1v-.342ZM32.075,61v.342H31.052V61ZM30.028,61v.342H29V61Zm-2.048.008v.342H26.954v-.342Zm-2.048.008v.342H24.907V61.02Zm-2.048.008v.342H22.858v-.342Zm-2.048.008v.342H20.811v-.342Zm-2.048.008v.342H18.762v-.342Zm-2.048.008V61.4H16.713v-.342Zm-2.047.008V61.4H14.667v-.342Zm-2.048.008v.342H12.617V61.07Zm-2.048.008v.342H10.57v-.342Zm-2.048.008v.342H8.521v-.342ZM7.477,61.1l.042.339-.1.012-.233.023-.321.022-.37.012-.011-.342.367-.012.315-.021.225-.022Z" transform="translate(10.477 14.706)"/>
  </g>
</svg>
